<?xml version="1.0" standalone="no"?>
<!DOCTYPE svg PUBLIC "-//W3C//DTD SVG 1.1//EN" "http://www.w3.org/Graphics/SVG/1.1/DTD/svg11.dtd" >
<svg xmlns="http://www.w3.org/2000/svg">
<metadata>Generated by IcoMoon</metadata>
<defs>
<font id="icomoon" horiz-adv-x="1024">
<font-face units-per-em="1024" ascent="960" descent="-64" />
<missing-glyph horiz-adv-x="1024" />
<glyph unicode="&#x20;" horiz-adv-x="512" d="" />
<glyph unicode="&#xe900;" glyph-name="hamburger" d="M204.757 692.224c-15.744-3.157-22.869-12.757-22.955-30.891-0.043-14.165 4.309-23.125 13.739-28.032 6.699-3.541 6.784-3.541 316.459-3.541s309.76 0 316.459 3.541c9.429 4.907 13.781 13.867 13.739 28.032-0.085 14.293-3.797 22.059-13.227 27.435l-7.211 4.139-305.493 0.256c-168.021 0.128-308.181-0.299-311.509-0.939zM204.757 478.891c-15.744-3.157-22.869-12.757-22.955-30.891-0.043-14.165 4.309-23.125 13.739-28.032 6.699-3.541 6.784-3.541 316.459-3.541s309.76 0 316.459 3.541c9.429 4.907 13.781 13.867 13.739 28.032-0.085 14.293-3.797 22.059-13.227 27.435l-7.211 4.139-305.493 0.256c-168.021 0.128-308.181-0.299-311.509-0.939zM204.757 265.557c-15.744-3.157-22.869-12.757-22.955-30.891-0.043-14.165 4.309-23.125 13.739-28.032 6.699-3.541 6.784-3.541 316.459-3.541s309.76 0 316.459 3.541c9.429 4.907 13.781 13.867 13.739 28.032-0.085 14.293-3.797 22.059-13.227 27.435l-7.211 4.139-305.493 0.256c-168.021 0.128-308.181-0.299-311.509-0.939z" />
<glyph unicode="&#xe901;" glyph-name="magnifying-glass" d="M455.68 777.941c-87.552-4.523-165.163-46.251-218.667-117.461-26.496-35.243-45.397-81.749-52.821-129.707-2.731-17.579-2.731-62.635 0-80.213 9.941-64.256 36.992-118.101 81.963-163.072s98.816-72.021 163.072-81.963c17.579-2.731 62.635-2.731 80.213 0 64.256 9.941 118.101 36.992 163.072 81.963 36.218 35.428 62.758 80.608 75.373 131.294l0.403 1.911c6.4 25.429 8.32 41.472 8.32 69.973 0.015 1.087 0.024 2.371 0.024 3.656 0 34.726-6.442 67.947-18.196 98.534l0.635-1.881c-32.213 87.808-108.16 155.733-199.765 178.645-21.974 5.396-47.201 8.492-73.151 8.492-3.684 0-7.353-0.062-11.007-0.186l0.531 0.014zM503.467 711.68c48.826-7.672 91.352-30.366 123.711-63.124l0.022-0.022c32.781-32.382 55.474-74.908 62.984-122.482l0.163-1.252c17.749-118.315-58.88-228.352-176.683-253.739-20.352-4.395-68.309-4.395-88.661 0-44.797 9.502-83.479 31.305-113.516 61.676l-0.020 0.020c-40.653 40.31-65.821 96.181-65.821 157.93 0 61.728 25.151 117.582 65.764 157.874l0.015 0.015c40.297 40.611 96.134 65.75 157.842 65.75 12.073 0 23.921-0.962 35.471-2.814l-1.271 0.168zM452.053 649.301c-19.669-2.133-32.981-6.059-51.84-15.232-36.949-17.92-63.147-45.397-78.165-81.963-12.075-29.397-16.043-65.365-8.747-79.232 4.907-9.387 13.867-13.781 28.032-13.781 13.909 0 23.168 4.437 27.733 13.269 2.005 3.84 3.84 12.629 4.864 23.381 4.907 52.096 38.229 85.419 90.325 90.325 10.752 1.024 19.541 2.859 23.381 4.864 8.875 4.565 13.269 13.824 13.227 27.733-0.128 25.6-14.165 34.432-48.811 30.635zM713.771 265.173c-8.917-4.395-18.56-15.36-21.163-24.021-4.309-14.421-4.48-14.208 74.24-92.971 79.275-79.232 78.464-78.592 93.525-74.069 9.301 2.773 22.741 16.213 25.515 25.515 4.523 14.976 4.949 14.421-72.405 91.989-69.419 69.632-78.037 77.184-88.277 77.184-4.264-0.575-8.122-1.852-11.619-3.716l0.184 0.090z" />
<glyph unicode="&#xe902;" glyph-name="error" d="M469.333 234.667c0 23.564 19.103 42.667 42.667 42.667s42.667-19.103 42.667-42.667c0-23.564-19.103-42.667-42.667-42.667s-42.667 19.103-42.667 42.667zM480 362.667c0-17.673 14.327-32 32-32s32 14.327 32 32h-64zM544 661.333c0 17.673-14.327 32-32 32s-32-14.327-32-32h64zM906.667 448c0-217.967-176.7-394.667-394.667-394.667v-64c253.316 0 458.667 205.35 458.667 458.667h-64zM512 53.333c-217.968 0-394.667 176.7-394.667 394.667h-64c0-253.316 205.352-458.667 458.667-458.667v64zM117.333 448c0 217.968 176.698 394.667 394.667 394.667v64c-253.315 0-458.667-205.352-458.667-458.667h64zM512 842.667c217.967 0 394.667-176.698 394.667-394.667h64c0 253.315-205.35 458.667-458.667 458.667v-64zM544 362.667v298.667h-64v-298.667h64z" />
<glyph unicode="&#xe903;" glyph-name="conn-arr" d="M790.626 425.374c12.497 12.497 12.497 32.755 0 45.252l-170.667 170.668c-12.497 12.497-32.755 12.497-45.252 0s-12.497-32.758 0-45.255l116.036-116.039h-434.743c-17.673 0-32-14.327-32-32s14.327-32 32-32h434.743l-116.036-116.041c-12.497-12.497-12.497-32.755 0-45.252s32.755-12.497 45.252 0l170.667 170.667z" />
<glyph unicode="&#xe904;" glyph-name="contact" d="M368 760c-53.019 0-96-42.981-96-96v0-48h480v48c0 53.019-42.981 96-96 96v0zM224 568c-53.019 0-96-42.981-96-96v0-144c0-53.019 42.981-96 96-96v0h48v96c0 53.019 42.981 96 96 96v0h288c53.019 0 96-42.981 96-96v0-96h48c53.019 0 96 42.981 96 96v0 144c0 53.019-42.981 96-96 96v0zM248 472c13.255 0 24-10.745 24-24s-10.745-24-24-24v0c-13.255 0-24 10.745-24 24s10.745 24 24 24v0zM368 376c-26.51 0-48-21.49-48-48v0-144c0-26.51 21.49-48 48-48v0h288c26.51 0 48 21.49 48 48v0 144c0 26.51-21.49 48-48 48v0z" />
<glyph unicode="&#xe905;" glyph-name="eye-closed" d="M148.039 766.706c-12.497 12.497-12.497 32.758 0 45.255s32.758 12.497 45.255 0l682.665-682.668c12.497-12.497 12.497-32.755 0-45.252s-32.755-12.497-45.252 0l-120.61 120.606c-60.126-32.738-127.27-55.313-198.097-55.313-162.796 0-306.112 119.266-389.559 207.066-49.477 52.058-49.477 131.145 0 183.202 35.406 37.252 81.589 80.169 135.465 117.238l-109.867 109.867zM401.722 513.024c-11.26-19.059-17.722-41.284-17.722-65.024 0-70.694 57.306-128 128-128 23.74 0 45.965 6.46 65.024 17.724l-175.302 175.3zM512 746.667c162.795 0 306.112-119.267 389.559-207.066 49.476-52.058 49.476-131.145 0-183.202-18.778-19.755-40.585-41.105-64.96-62.327l-434.991 434.989c35.392 11.097 72.358 17.606 110.391 17.606z" />
<glyph unicode="&#xe906;" glyph-name="garage" d="M848.845 557.248l-52.531 157.594c-7.62 22.945-22.276 42.904-41.89 57.043s-43.183 21.737-67.358 21.716h-350.131c-24.177 0.021-47.746-7.577-67.358-21.716s-34.27-34.098-41.89-57.043l-52.531-157.594c-13.969-5.845-25.899-15.689-34.289-28.297-8.39-12.604-12.867-27.409-12.867-42.551v-192c0-28.339 15.514-52.838 38.4-66.163v-87.437c0-10.185 4.046-19.951 11.247-27.153s16.969-11.247 27.153-11.247h38.4c10.184 0 19.951 4.045 27.153 11.247s11.247 16.969 11.247 27.153v76.8h460.8v-76.8c0-10.185 4.045-19.951 11.247-27.153s16.969-11.247 27.153-11.247h38.4c10.185 0 19.951 4.045 27.153 11.247s11.247 16.969 11.247 27.153v87.437c11.652 6.682 21.333 16.316 28.075 27.93 6.741 11.618 10.304 24.802 10.325 38.234v192c0 15.142-4.476 29.948-12.868 42.551-8.388 12.608-20.318 22.452-34.287 28.297zM336.934 716.8h350.093c16.55 0 31.219-10.522 36.442-26.266l42.47-127.334h-507.878l42.432 127.334c2.548 7.65 7.439 14.303 13.979 19.017s14.4 7.25 22.462 7.248zM262.4 332.8c-7.567 0.004-15.059 1.493-22.048 4.395-6.99 2.897-13.34 7.142-18.689 12.497-5.349 5.35-9.591 11.703-12.484 18.697-2.893 6.989-4.381 14.485-4.378 22.050s1.495 15.057 4.393 22.050c2.898 6.989 7.144 13.338 12.497 18.688 5.352 5.346 11.705 9.591 18.697 12.484s14.485 4.382 22.051 4.378c15.281-0.004 29.935-6.080 40.737-16.892 10.802-10.807 16.868-25.463 16.863-40.747s-6.080-29.935-16.89-40.738c-10.809-10.803-25.467-16.866-40.748-16.862zM761.6 332.8c-7.565 0.004-15.057 1.493-22.050 4.395-6.989 2.897-13.338 7.142-18.688 12.497-5.346 5.35-9.591 11.703-12.484 18.697-2.893 6.989-4.382 14.485-4.378 22.050s1.493 15.057 4.395 22.050c2.897 6.989 7.142 13.338 12.497 18.688 5.35 5.346 11.703 9.591 18.697 12.484 6.989 2.893 14.485 4.382 22.050 4.378 15.283-0.004 29.935-6.080 40.738-16.892 10.803-10.807 16.866-25.463 16.862-40.747s-6.080-29.935-16.892-40.738c-10.807-10.803-25.463-16.866-40.747-16.862z" />
<glyph unicode="&#xe907;" glyph-name="instagram" d="M680 832h-336c-120 0-216-96-216-216v-336c0-120 96-216 216-216h336c120 0 216 96 216 216v336c0 120-96 216-216 216zM512 592c79.2 0 144-64.8 144-144s-64.8-144-144-144c-79.2 0-144 64.8-144 144s64.8 144 144 144zM656 664c0 26.4 21.6 48 48 48s48-21.6 48-48c0-26.4-21.6-48-48-48s-48 21.6-48 48z" />
<glyph unicode="&#xe908;" glyph-name="mail" d="M128.563 569.545c-0.563-22.994-0.563-49.101-0.563-78.878v-85.333c0-120.678 0-181.018 37.49-218.509s97.83-37.491 218.51-37.491h256c120.678 0 181.018 0 218.509 37.491s37.491 97.83 37.491 218.509v85.333c0 29.777 0 55.884-0.563 78.878l-341.995-189.999c-25.775-14.315-57.109-14.315-82.884 0l-341.995 189.999zM138.367 660.066c3.536-0.888 7.016-2.247 10.354-4.102l363.279-201.82 363.281 201.82c3.337 1.855 6.818 3.214 10.351 4.102-5.542 20.204-14.054 36.045-27.123 49.111-37.491 37.49-97.83 37.49-218.509 37.49h-256c-120.68 0-181.019 0-218.51-37.49-13.066-13.066-21.578-28.907-27.124-49.111z" />
<glyph unicode="&#xe909;" glyph-name="pass" d="M373.333 672v-53.333h277.333v53.333c0 76.584-62.084 138.667-138.667 138.667s-138.667-62.083-138.667-138.667zM309.333 615.671v56.329c0 111.93 90.737 202.667 202.667 202.667 111.932 0 202.667-90.737 202.667-202.667v-56.329c78.959-14.978 138.667-84.352 138.667-167.671v-256c0-94.255-76.412-170.667-170.667-170.667h-341.333c-94.257 0-170.667 76.412-170.667 170.667v256c0 83.319 59.706 152.693 138.667 167.671zM597.333 320c0 47.13-38.204 85.333-85.333 85.333s-85.333-38.204-85.333-85.333c0-47.13 38.204-85.333 85.333-85.333s85.333 38.204 85.333 85.333z" />
<glyph unicode="&#xe90a;" glyph-name="person" d="M512 490.667c94.255 0 170.667 76.41 170.667 170.667s-76.412 170.667-170.667 170.667c-94.257 0-170.667-76.41-170.667-170.667s76.41-170.667 170.667-170.667zM512 64c164.949 0 298.667 76.412 298.667 170.667s-133.717 170.667-298.667 170.667c-164.949 0-298.667-76.412-298.667-170.667s133.718-170.667 298.667-170.667z" />
<glyph unicode="&#xe90b;" glyph-name="phone" d="M896 149.333v70.225c0 34.893-21.244 66.274-53.641 79.232l-86.793 34.714c-41.203 16.486-88.166-1.37-108.015-41.067l-7.552-15.104c0 0-106.667 21.333-192 106.667s-106.667 192-106.667 192l15.105 7.552c39.695 19.848 57.55 66.81 41.068 108.016l-34.716 86.79c-12.959 32.398-44.337 53.641-79.23 53.641h-70.226c-47.128 0-85.333-38.205-85.333-85.333 0-377.028 305.638-682.667 682.667-682.667 47.13 0 85.333 38.204 85.333 85.333z" />
<glyph unicode="&#xe90c;" glyph-name="pin" d="M460.8 892.544c-74.197-9.173-143.36-38.272-203.776-85.675-18.688-14.677-55.083-52.224-70.315-72.576-66.304-88.576-93.781-202.752-73.216-304.299 8.235-40.661 20.139-74.837 41.685-119.381 58.965-121.899 165.291-236.416 265.515-285.909 65.579-32.384 116.779-32.384 182.613 0.043 99.883 49.152 206.635 164.096 265.515 285.867 21.547 44.587 33.536 78.891 41.643 119.253 20.523 102.101-6.827 215.808-73.173 304.427-15.232 20.352-51.627 57.899-70.315 72.576-58.077 46.389-130.205 77.545-209.083 86.359l-1.861 0.169c-22.229 2.347-73.088 1.92-95.232-0.853zM572.587 848.384c38.483-6.706 72.925-18.42 104.692-34.627l-2.078 0.963c106.897-53.745 182.256-156.512 196.867-277.97l0.168-1.71c3.157-27.648 1.152-74.325-4.309-100.224-29.781-142.080-159.019-310.869-285.397-372.736-51.413-25.173-89.643-25.173-141.056 0-41.088 20.096-77.44 47.232-119.125 88.832-85.205 85.035-146.389 189.397-166.272 283.563-5.461 26.069-7.467 72.661-4.309 100.651 17.109 150.741 129.664 275.413 278.997 308.992 30.421 6.869 46.080 8.235 87.211 7.637 27.179-0.384 43.989-1.408 54.613-3.371zM488.107 638.080c-63.488-12.203-111.829-59.477-122.923-120.277-2.56-13.995-2.56-40.277 0-54.272 10.837-59.349 60.331-108.843 119.68-119.68 13.995-2.56 40.277-2.56 54.272 0 38.315 6.997 74.752 31.232 97.408 64.768 9.045 13.397 18.091 35.115 21.589 51.755 3.115 14.848 3.456 42.368 0.683 57.429-10.027 54.571-52.011 100.608-106.155 116.352-9.472 2.773-18.304 3.755-36.395 4.181-3.401 0.141-7.393 0.221-11.404 0.221-5.894 0-11.748-0.173-17.557-0.514l0.801 0.038zM546.859 591.659c30.687-11.703 54.501-35.475 66-65.359l0.262-0.774c3.243-8.747 3.755-13.483 3.755-34.859s-0.512-26.112-3.755-34.859c-9.813-26.24-30.336-49.365-53.76-60.501-17.707-8.405-28.331-10.88-47.36-10.88s-29.653 2.475-47.36 10.88c-23.509 11.179-44.331 34.688-53.589 60.501-4.608 12.757-6.229 42.112-3.2 57.472 7.296 37.205 40.021 71.424 77.312 80.853 13.995 3.541 49.024 2.133 61.696-2.475z" />
<glyph unicode="&#xe90d;" glyph-name="plus" d="M426.667 192c0-47.13 38.204-85.333 85.333-85.333s85.333 38.204 85.333 85.333v170.667h170.667c47.13 0 85.333 38.204 85.333 85.333s-38.204 85.333-85.333 85.333h-170.667v170.667c0 47.128-38.204 85.333-85.333 85.333s-85.333-38.205-85.333-85.333v-170.667h-170.667c-47.128 0-85.333-38.204-85.333-85.333s38.205-85.333 85.333-85.333h170.667v-170.667z" />
<glyph unicode="&#xe90e;" glyph-name="room" d="M298.667 490.667v-85.333h426.667v85.333c0 47.061 38.272 85.333 85.333 85.333h42.667c0 70.692-57.308 128-128 128v0h-426.667c-70.692 0-128-57.308-128-128v0h42.667c47.061 0 85.333-38.272 85.333-85.333zM853.333 533.333h-42.667c-23.564 0-42.667-19.103-42.667-42.667v0-128h-512v128c0 23.564-19.103 42.667-42.667 42.667v0h-42.667c-47.061 0-85.333-38.272-85.333-85.333 0-31.488 17.323-58.667 42.667-73.472v-161.195c0-11.733 9.6-21.333 21.333-21.333h85.333c11.733 0 21.333 9.6 21.333 21.333v21.333h512v-21.333c0-11.733 9.6-21.333 21.333-21.333h85.333c11.733 0 21.333 9.6 21.333 21.333v161.195c25.344 14.805 42.667 41.984 42.667 73.472 0 47.061-38.272 85.333-85.333 85.333z" />
<glyph unicode="&#xe90f;" glyph-name="save" horiz-adv-x="768" d="M168.96-20.608v0zM330.24 98.432v-0.026zM437.76 98.432v-0.026zM599.040-20.608v0zM0 846.234v-796.314h51.2v796.314h-51.2zM184.166-41.216l161.28 119.040-30.413 41.19-161.28-119.040 30.413-41.19zM422.554 77.824l161.28-119.040 30.413 41.216-161.28 119.014-30.413-41.216zM768 49.92v796.314h-51.2v-796.314h51.2zM652.8 960h-537.6v-51.2h537.6v51.2zM768 846.234c0 63.232-51.968 113.766-115.2 113.766v-51.2c35.738 0 64-28.416 64-62.566h51.2zM583.834-41.216c75.366-55.552 184.166-3.302 184.166 91.136h-51.2c0-50.867-59.75-81.51-102.554-49.92l-30.413-41.216zM345.446 77.824c10.651 7.887 24.049 12.625 38.554 12.625s27.902-4.738 38.73-12.75l-0.177 0.125 30.413 41.19c-19.043 14.141-43.012 22.637-68.966 22.637s-49.923-8.496-69.279-22.858l0.313 0.222 30.413-41.216zM0 49.92c0-94.438 108.8-146.714 184.166-91.136l-30.413 41.216c-42.803-31.59-102.554-0.947-102.554 49.92h-51.2zM51.2 846.234c0 34.176 28.262 62.566 64 62.566v51.2c-63.232 0-115.2-50.534-115.2-113.766h51.2z" />
<glyph unicode="&#xe910;" glyph-name="space" d="M272 832c-79.776 0-144-64.224-144-144v-480c0-79.778 64.224-144 144-144h480c79.778 0 144 64.222 144 144v480c0 79.776-64.222 144-144 144h-480zM252.362 736c15.955 0 28.8-12.845 28.8-28.8v-115.2c0-15.955-12.845-28.8-28.8-28.8s-28.8 12.845-28.8 28.8v115.2c0 15.955 12.845 28.8 28.8 28.8zM367.562 736c15.955 0 28.8-12.845 28.8-28.8v-115.2c0-15.955-12.845-28.8-28.8-28.8s-28.8 12.845-28.8 28.8v115.2c0 15.955 12.845 28.8 28.8 28.8zM656.439 736h115.2c2.991 0 5.867-0.448 8.572-1.288 3.614-1.118 6.921-2.919 9.762-5.263 0.713-0.589 1.399-1.21 2.052-1.862 5.205-5.206 8.414-12.409 8.414-20.387v-115.2c0-15.955-12.847-28.8-28.8-28.8-15.957 0-28.8 12.845-28.8 28.8v45.675l-153.19-153.173c5.265-11.127 8.311-23.471 8.311-36.501 0-47.377-39.023-86.4-86.4-86.4-13.026 0-25.357 3.046-36.484 8.311l-152.314-152.311h44.8c15.955 0 28.8-12.847 28.8-28.8 0-15.957-12.845-28.8-28.8-28.8h-115.2c-15.955 0-28.8 12.843-28.8 28.8v115.2c0 15.953 12.845 28.8 28.8 28.8s28.8-12.847 28.8-28.8v-46.524l152.864 152.862c-5.619 11.426-8.864 24.175-8.864 37.662 0 47.377 39.025 86.4 86.398 86.4 13.487 0 26.24-3.247 37.666-8.862l152.887 152.862h-45.675c-15.957 0-28.8 12.845-28.8 28.8s12.843 28.8 28.8 28.8v0zM511.561 476.8c-16.243 0-28.8-12.553-28.8-28.8s12.557-28.8 28.8-28.8c16.247 0 28.8 12.553 28.8 28.8s-12.553 28.8-28.8 28.8z" />
<glyph unicode="&#xe911;" glyph-name="down-arrow" d="M273.68 553.322c11.040 13.801 31.177 16.038 44.978 4.998l193.342-154.676 193.344 154.676c13.803 11.040 33.937 8.803 44.979-4.998 11.038-13.8 8.802-33.937-5.001-44.979l-213.333-170.667c-11.686-9.348-28.292-9.348-39.979 0l-213.333 170.667c-13.801 11.042-16.038 31.179-4.998 44.979z" />
<glyph unicode="&#xe912;" glyph-name="bath" d="M950.857 329.143v-109.714c0-65.143-28.571-122.857-73.143-163.429v-110.857c0-10.286-8-18.286-18.286-18.286h-36.571c-10.286 0-18.286 8-18.286 18.286v67.429c-22.857-8-47.429-12.571-73.143-12.571h-438.857c-25.714 0-50.286 4.571-73.143 12.571v-62.857c0-12.571-8-22.857-18.286-22.857h-36.571c-10.286 0-18.286 10.286-18.286 22.857v106.286c-44.571 40.571-73.143 98.286-73.143 163.429v109.714h877.714zM402.286 566.857c0-10.286-8-18.286-18.286-18.286s-18.286 8-18.286 18.286 8 18.286 18.286 18.286 18.286-8 18.286-18.286zM438.857 603.428c0-10.286-8-18.286-18.286-18.286s-18.286 8-18.286 18.286 8 18.286 18.286 18.286 18.286-8 18.286-18.286zM402.286 640c0-10.286-8-18.286-18.286-18.286s-18.286 8-18.286 18.286 8 18.286 18.286 18.286 18.286-8 18.286-18.286zM475.429 640c0-10.286-8-18.286-18.286-18.286s-18.286 8-18.286 18.286 8 18.286 18.286 18.286 18.286-8 18.286-18.286zM438.857 676.571c0-10.286-8-18.286-18.286-18.286s-18.286 8-18.286 18.286 8 18.286 18.286 18.286 18.286-8 18.286-18.286zM402.286 713.143c0-10.286-8-18.286-18.286-18.286s-18.286 8-18.286 18.286 8 18.286 18.286 18.286 18.286-8 18.286-18.286zM1024 420.571v-36.571c0-10.286-8-18.286-18.286-18.286h-987.429c-10.286 0-18.286 8-18.286 18.286v36.571c0 10.286 8 18.286 18.286 18.286h54.857v365.714c0 80.571 65.714 146.286 146.286 146.286 41.143 0 78.286-17.143 105.143-44.571 35.429 14.286 77.714 9.143 109.143-15.429l12.571 12.571c3.429 3.429 9.143 3.429 12.571 0l24-24c3.429-3.429 3.429-9.143 0-12.571l-179.429-179.429c-3.429-3.429-9.143-3.429-12.571 0l-24 24c-3.429 3.429-3.429 9.143 0 12.571l12.571 12.571c-27.429 34.857-30.857 82.857-9.714 121.143-13.143 12.571-30.857 20-50.286 20-40.571 0-73.143-32.571-73.143-73.143v-365.714h859.429c10.286 0 18.286-8 18.286-18.286zM512 676.571c0-10.286-8-18.286-18.286-18.286s-18.286 8-18.286 18.286 8 18.286 18.286 18.286 18.286-8 18.286-18.286zM475.429 713.143c0-10.286-8-18.286-18.286-18.286s-18.286 8-18.286 18.286 8 18.286 18.286 18.286 18.286-8 18.286-18.286zM438.857 749.714c0-10.286-8-18.286-18.286-18.286s-18.286 8-18.286 18.286 8 18.286 18.286 18.286 18.286-8 18.286-18.286zM548.571 713.143c0-10.286-8-18.286-18.286-18.286s-18.286 8-18.286 18.286 8 18.286 18.286 18.286 18.286-8 18.286-18.286zM512 749.714c0-10.286-8-18.286-18.286-18.286s-18.286 8-18.286 18.286 8 18.286 18.286 18.286 18.286-8 18.286-18.286zM475.429 786.286c0-10.286-8-18.286-18.286-18.286s-18.286 8-18.286 18.286 8 18.286 18.286 18.286 18.286-8 18.286-18.286zM585.143 749.714c0-10.286-8-18.286-18.286-18.286s-18.286 8-18.286 18.286 8 18.286 18.286 18.286 18.286-8 18.286-18.286zM548.571 786.286c0-10.286-8-18.286-18.286-18.286s-18.286 8-18.286 18.286 8 18.286 18.286 18.286 18.286-8 18.286-18.286zM621.714 786.286c0-10.286-8-18.286-18.286-18.286s-18.286 8-18.286 18.286 8 18.286 18.286 18.286 18.286-8 18.286-18.286z" />
<glyph unicode="&#xe913;" glyph-name="left-right-arrow" d="M137.373 402.752c-12.497 12.493-12.497 32.755 0 45.252l116.039 116.040c12.497 12.497 32.758 12.497 45.255 0s12.497-32.759 0-45.256l-61.412-61.41h413.412c17.673 0 32-14.327 32-32s-14.327-32-32-32h-413.412l61.412-61.414c12.497-12.497 12.497-32.759 0-45.257s-32.758-12.497-45.255 0l-116.039 116.045zM886.626 402.752c12.497 12.493 12.497 32.755 0 45.252l-116.036 116.040c-12.497 12.497-32.759 12.497-45.257 0s-12.497-32.759 0-45.256l61.41-61.41h-413.41c-17.673 0-32-14.327-32-32s14.327-32 32-32h413.41l-61.41-61.414c-12.497-12.497-12.497-32.759 0-45.257s32.759-12.497 45.257 0l116.036 116.045z" />
<glyph unicode="&#xe914;" glyph-name="left-right-arrow1" d="M137.373 402.752c-12.497 12.493-12.497 32.755 0 45.252l116.039 116.040c12.497 12.497 32.758 12.497 45.255 0s12.497-32.759 0-45.256l-61.412-61.41h413.412c17.673 0 32-14.327 32-32s-14.327-32-32-32h-413.412l61.412-61.414c12.497-12.497 12.497-32.759 0-45.257s-32.758-12.497-45.255 0l-116.039 116.045zM886.626 402.752c12.497 12.493 12.497 32.755 0 45.252l-116.036 116.040c-12.497 12.497-32.759 12.497-45.257 0s-12.497-32.759 0-45.256l61.41-61.41h-413.41c-17.673 0-32-14.327-32-32s14.327-32 32-32h413.41l-61.41-61.414c-12.497-12.497-12.497-32.759 0-45.257s32.759-12.497 45.257 0l116.036 116.045z" />
<glyph unicode="&#xea52;" glyph-name="checkbox-checked" d="M896 960h-768c-70.4 0-128-57.6-128-128v-768c0-70.4 57.6-128 128-128h768c70.4 0 128 57.6 128 128v768c0 70.4-57.6 128-128 128zM448 165.49l-237.254 237.256 90.51 90.508 146.744-146.744 306.746 306.746 90.508-90.51-397.254-397.256z" />
<glyph unicode="&#xea53;" glyph-name="checkbox-unchecked" d="M896 960h-768c-70.4 0-128-57.6-128-128v-768c0-70.4 57.6-128 128-128h768c70.4 0 128 57.6 128 128v768c0 70.4-57.6 128-128 128zM896 64h-768v768h768v-768z" />
<glyph unicode="&#xea88;" glyph-name="google" d="M522.2 521.2v-175.6h290.4c-11.8-75.4-87.8-220.8-290.4-220.8-174.8 0-317.4 144.8-317.4 323.2s142.6 323.2 317.4 323.2c99.4 0 166-42.4 204-79l139 133.8c-89.2 83.6-204.8 134-343 134-283 0-512-229-512-512s229-512 512-512c295.4 0 491.6 207.8 491.6 500.2 0 33.6-3.6 59.2-8 84.8l-483.6 0.2z" />
<glyph unicode="&#xea90;" glyph-name="facebook" d="M608 768h160v192h-160c-123.514 0-224-100.486-224-224v-96h-128v-192h128v-512h192v512h160l32 192h-192v96c0 17.346 14.654 32 32 32z" />
</font>
</defs>
</svg>
