<svg viewBox="0 0 24 24" fill="none" xmlns="http://www.w3.org/2000/svg">
<path d="M4.125 16.5001C4.12597 16.9724 4.22668 17.4391 4.42055 17.8698C4.61442 18.3005 4.89707 18.6854 5.25 18.9993V20.4375C5.25 20.5867 5.30926 20.7298 5.41475 20.8353C5.52024 20.9407 5.66332 21 5.8125 21H6.9375C7.08668 21 7.22976 20.9407 7.33525 20.8353C7.44074 20.7298 7.5 20.5867 7.5 20.4375V19.875H16.5V20.4375C16.5 20.5867 16.5593 20.7298 16.6648 20.8353C16.7702 20.9407 16.9133 21 17.0625 21H18.1875C18.3367 21 18.4798 20.9407 18.5852 20.8353C18.6907 20.7298 18.75 20.5867 18.75 20.4375V18.9993C19.1029 18.6854 19.3856 18.3005 19.5794 17.8698C19.7733 17.4391 19.874 16.9724 19.875 16.5001V14.8126H4.125V16.5001ZM20.4375 12.0001H5.8125V5.43475C5.81282 5.28711 5.85685 5.14288 5.93905 5.02025C6.02124 4.89761 6.13791 4.80207 6.27434 4.74566C6.41078 4.68925 6.56086 4.67451 6.70566 4.7033C6.85046 4.73208 6.98349 4.80311 7.08797 4.90741L7.76543 5.58451C7.30383 6.63497 7.49789 7.66257 8.06848 8.38749L8.0625 8.39346C7.95741 8.4989 7.8984 8.64169 7.8984 8.79055C7.8984 8.93941 7.95741 9.0822 8.0625 9.18763L8.46012 9.58525C8.51235 9.63749 8.57437 9.67894 8.64262 9.70721C8.71088 9.73549 8.78403 9.75004 8.85791 9.75004C8.93179 9.75004 9.00495 9.73549 9.0732 9.70721C9.14145 9.67894 9.20347 9.63749 9.2557 9.58525L12.9601 5.88087C13.0124 5.82864 13.0538 5.76662 13.0821 5.69837C13.1104 5.63012 13.1249 5.55696 13.1249 5.48308C13.1249 5.40921 13.1104 5.33605 13.0821 5.2678C13.0538 5.19954 13.0124 5.13753 12.9601 5.0853L12.5625 4.68768C12.457 4.58227 12.314 4.52306 12.1649 4.52306C12.0158 4.52306 11.8727 4.58227 11.7673 4.68768L11.7613 4.69366C11.0364 4.12308 10.0095 3.92902 8.95828 4.39062L8.28117 3.71316C7.94069 3.37265 7.50687 3.14075 7.03459 3.04679C6.5623 2.95284 6.07276 3.00105 5.62787 3.18533C5.18299 3.36961 4.80275 3.68168 4.53524 4.08208C4.26772 4.48248 4.12496 4.95321 4.125 5.43475V12.0001H3.5625C3.41332 12.0001 3.27024 12.0594 3.16475 12.1649C3.05926 12.2703 3 12.4134 3 12.5626V13.1251C3 13.2743 3.05926 13.4173 3.16475 13.5228C3.27024 13.6283 3.41332 13.6876 3.5625 13.6876H20.4375C20.5867 13.6876 20.7298 13.6283 20.8352 13.5228C20.9407 13.4173 21 13.2743 21 13.1251V12.5626C21 12.4134 20.9407 12.2703 20.8352 12.1649C20.7298 12.0594 20.5867 12.0001 20.4375 12.0001Z" fill="black"/>
</svg>
