<svg
   viewBox="0 0 24 24"
   xmlns="http://www.w3.org/2000/svg"
   xmlns:svg="http://www.w3.org/2000/svg">
    <path
      d="M 15.9375,3 H 8.0625 C 5.25,3 3,5.25 3,8.0625 v 3.375 4.5 C 3,18.75 5.25,21 8.0625,21 h 7.875 C 18.75,21 21,18.75 21,15.9375 v -4.5 -3.375 C 21,5.25 18.75,3 15.9375,3 Z M 12,8.625 c 1.85625,0 3.375,1.51875 3.375,3.375 0,1.85625 -1.51875,3.375 -3.375,3.375 -1.85625,0 -3.375,-1.51875 -3.375,-3.375 0,-1.85625 1.51875,-3.375 3.375,-3.375 z m 3.375,-1.6875 c 0,-0.61875 0.50625,-1.125 1.125,-1.125 0.61875,0 1.125,0.50625 1.125,1.125 0,0.61875 -0.50625,1.125 -1.125,1.125 -0.61875,0 -1.125,-0.50625 -1.125,-1.125 z"
    />
</svg>
