<svg viewBox="0 0 24 24" fill="none" xmlns="http://www.w3.org/2000/svg">
<path d="M6.375 3C4.50525 3 3 4.50526 3 6.375V17.625C3 19.4948 4.50525 21 6.375 21H17.625C19.4948 21 21 19.4948 21 17.625V6.375C21 4.50526 19.4948 3 17.625 3H6.375ZM5.91474 5.25C6.28869 5.25 6.58974 5.55105 6.58974 5.925V8.625C6.58974 8.99895 6.28869 9.3 5.91474 9.3C5.54079 9.3 5.23974 8.99895 5.23974 8.625V5.925C5.23974 5.55105 5.54079 5.25 5.91474 5.25ZM8.61474 5.25C8.98869 5.25 9.28974 5.55105 9.28974 5.925V8.625C9.28974 8.99895 8.98869 9.3 8.61474 9.3C8.24079 9.3 7.93974 8.99895 7.93974 8.625V5.925C7.93974 5.55105 8.24079 5.25 8.61474 5.25ZM15.3853 5.25H18.0853C18.1554 5.25 18.2228 5.2605 18.2862 5.28018C18.3709 5.30639 18.4484 5.3486 18.515 5.40353C18.5317 5.41733 18.5478 5.43188 18.5631 5.44718C18.6851 5.56919 18.7603 5.73801 18.7603 5.925V8.625C18.7603 8.99895 18.4592 9.3 18.0853 9.3C17.7113 9.3 17.4103 8.99895 17.4103 8.625V7.5545L13.8199 11.1445C13.9433 11.4053 14.0147 11.6946 14.0147 12C14.0147 13.1104 13.1001 14.025 11.9897 14.025C11.6844 14.025 11.3954 13.9536 11.1346 13.8302L7.56474 17.4H8.61474C8.98869 17.4 9.28974 17.7011 9.28974 18.075C9.28974 18.449 8.98869 18.75 8.61474 18.75H5.91474C5.54079 18.75 5.23974 18.449 5.23974 18.075V15.375C5.23974 15.0011 5.54079 14.7 5.91474 14.7C6.28869 14.7 6.58974 15.0011 6.58974 15.375V16.4654L10.1725 12.8827C10.0408 12.6149 9.96474 12.3161 9.96474 12C9.96474 10.8896 10.8794 9.975 11.9897 9.975C12.3058 9.975 12.6047 10.0511 12.8725 10.1827L16.4558 6.6H15.3853C15.0113 6.6 14.7103 6.29895 14.7103 5.925C14.7103 5.55105 15.0113 5.25 15.3853 5.25H15.3853ZM11.9897 11.325C11.609 11.325 11.3147 11.6192 11.3147 12C11.3147 12.3808 11.609 12.675 11.9897 12.675C12.3705 12.675 12.6647 12.3808 12.6647 12C12.6647 11.6192 12.3705 11.325 11.9897 11.325Z" fill="#086788"/>
</svg>
