<svg width="25" height="24" viewBox="0 0 25 24" fill="none" xmlns="http://www.w3.org/2000/svg">
<path d="M15.4426 16L15.2955 16.7354C15.6272 16.8018 15.9622 16.6379 16.1134 16.3354L15.4426 16ZM8.44263 9L8.10722 8.32918C7.80471 8.48043 7.64086 8.81544 7.70719 9.14709L8.44263 9ZM8.79664 8.82299L9.13205 9.49381L9.13205 9.49381L8.79664 8.82299ZM9.75917 6.29136L10.4555 6.01281L10.4555 6.01281L9.75917 6.29136ZM8.94551 4.25722L8.24916 4.53576L8.24916 4.53576L8.94551 4.25722ZM20.1854 15.4971L20.464 14.8008L20.464 14.8008L20.1854 15.4971ZM18.1513 14.6835L18.4298 13.9871L18.4298 13.9871L18.1513 14.6835ZM15.6196 15.646L16.2905 15.9814L16.2905 15.9814L15.6196 15.646ZM20.6926 17.3541V19H22.1926V17.3541H20.6926ZM5.44263 3.75H7.08856V2.25H5.44263V3.75ZM15.4426 16C15.5897 15.2646 15.5899 15.2646 15.5901 15.2646C15.5902 15.2647 15.5904 15.2647 15.5905 15.2647C15.5907 15.2648 15.5909 15.2648 15.591 15.2648C15.5913 15.2649 15.5915 15.2649 15.5915 15.2649C15.5914 15.2649 15.5908 15.2648 15.5897 15.2645C15.5873 15.264 15.5826 15.2631 15.5758 15.2615C15.562 15.2585 15.5393 15.2533 15.5086 15.2459C15.447 15.2309 15.353 15.2066 15.2324 15.1711C14.9908 15.1 14.6443 14.9847 14.2381 14.8106C13.4222 14.461 12.3865 13.8833 11.473 12.9697L10.4123 14.0303C11.4987 15.1167 12.713 15.789 13.6472 16.1894C14.116 16.3903 14.5195 16.525 14.8091 16.6101C14.9541 16.6528 15.0711 16.6832 15.154 16.7034C15.1955 16.7135 15.2286 16.721 15.2524 16.7263C15.2643 16.7289 15.2739 16.7309 15.2811 16.7325C15.2847 16.7332 15.2877 16.7339 15.2902 16.7343C15.2914 16.7346 15.2924 16.7348 15.2933 16.735C15.2938 16.7351 15.2942 16.7352 15.2945 16.7352C15.2947 16.7353 15.295 16.7353 15.2951 16.7353C15.2953 16.7354 15.2955 16.7354 15.4426 16ZM11.473 12.9697C10.5594 12.0561 9.98164 11.0204 9.63199 10.2046C9.4579 9.79836 9.34258 9.45184 9.27153 9.21025C9.23605 9.08962 9.21175 8.99565 9.19677 8.93406C9.18928 8.90329 9.18414 8.88065 9.18109 8.86687C9.17957 8.85999 9.17858 8.85532 9.17808 8.85296C9.17784 8.85178 9.17771 8.85118 9.17771 8.85117C9.17771 8.85116 9.17774 8.8513 9.1778 8.85159C9.17783 8.85174 9.17786 8.85192 9.17791 8.85214C9.17793 8.85225 9.17797 8.85244 9.17798 8.8525C9.17802 8.8527 9.17806 8.85291 8.44263 9C7.70719 9.14709 7.70724 9.14732 7.70729 9.14756C7.7073 9.14765 7.70735 9.1479 7.70739 9.14809C7.70747 9.14846 7.70755 9.14887 7.70764 9.14932C7.70782 9.15022 7.70804 9.15127 7.70828 9.15247C7.70878 9.15488 7.7094 9.15789 7.71016 9.1615C7.71168 9.16873 7.71374 9.17834 7.71637 9.19026C7.72163 9.21407 7.72917 9.2471 7.73927 9.28859C7.75944 9.37154 7.78983 9.48851 7.83248 9.6335C7.91767 9.92316 8.05236 10.3266 8.25327 10.7954C8.65362 11.7296 9.32588 12.9439 10.4123 14.0303L11.473 12.9697ZM8.77804 9.67082L9.13205 9.49381L8.46123 8.15217L8.10722 8.32918L8.77804 9.67082ZM10.4555 6.01281L9.64187 3.97868L8.24916 4.53576L9.06281 6.5699L10.4555 6.01281ZM20.464 14.8008L18.4298 13.9871L17.8727 15.3798L19.9069 16.1935L20.464 14.8008ZM14.9488 15.3106L14.7718 15.6646L16.1134 16.3354L16.2905 15.9814L14.9488 15.3106ZM18.4298 13.9871C17.1019 13.4559 15.5884 14.0313 14.9488 15.3106L16.2905 15.9814C16.5812 15.3999 17.2691 15.1384 17.8727 15.3798L18.4298 13.9871ZM9.13205 9.49381C10.4113 8.85419 10.9867 7.34076 10.4555 6.01281L9.06281 6.5699C9.30426 7.17351 9.04271 7.86143 8.46123 8.15217L9.13205 9.49381ZM7.08856 3.75C7.59969 3.75 8.05933 4.06119 8.24916 4.53576L9.64187 3.97868C9.22425 2.93462 8.21305 2.25 7.08856 2.25V3.75ZM22.1926 17.3541C22.1926 16.2296 21.508 15.2184 20.464 14.8008L19.9069 16.1935C20.3814 16.3833 20.6926 16.8429 20.6926 17.3541H22.1926ZM19.4426 20.25C11.0203 20.25 4.19263 13.4223 4.19263 5H2.69263C2.69263 14.2508 10.1919 21.75 19.4426 21.75V20.25ZM19.4426 21.75C20.9614 21.75 22.1926 20.5188 22.1926 19H20.6926C20.6926 19.6904 20.133 20.25 19.4426 20.25V21.75ZM4.19263 5C4.19263 4.30964 4.75227 3.75 5.44263 3.75V2.25C3.92384 2.25 2.69263 3.48122 2.69263 5H4.19263Z" fill="black"/>
</svg>
