<svg width="18" height="18" viewBox="0 0 18 18" fill="none" xmlns="http://www.w3.org/2000/svg">
<path d="M4.29032 9.5868H6.26341V17.7097C6.26341 17.8701 6.39336 18 6.55374 18H9.89918C10.0596 18 10.1895 17.8701 10.1895 17.7097V9.62506H12.4577C12.6052 9.62506 12.7293 9.51439 12.7461 9.3679L13.0906 6.37746C13.1001 6.29518 13.074 6.21279 13.019 6.15106C12.9639 6.08928 12.885 6.05392 12.8023 6.05392H10.1896V4.17937C10.1896 3.61428 10.4939 3.32774 11.094 3.32774C11.1796 3.32774 12.8023 3.32774 12.8023 3.32774C12.9627 3.32774 13.0926 3.19773 13.0926 3.03741V0.292471C13.0926 0.132097 12.9627 0.00214839 12.8023 0.00214839H10.4481C10.4315 0.00133548 10.3946 0 10.3402 0C9.93175 0 8.5119 0.080187 7.39033 1.11199C6.14763 2.2554 6.32037 3.62445 6.36166 3.86181V6.05386H4.29032C4.12995 6.05386 4 6.18381 4 6.34419V9.29642C4 9.45679 4.12995 9.5868 4.29032 9.5868Z" fill="white"/>
</svg>
