<svg width="18" height="19" viewBox="0 0 18 19" fill="none" xmlns="http://www.w3.org/2000/svg">
<path d="M9.19608 0C5.60194 0 2.49755 2.06846 0.98786 5.07251C0.359461 6.31398 0 7.70938 0 9.19608C0 10.6828 0.359461 12.0782 0.98786 13.3196C2.49755 16.3237 5.60194 18.3922 9.19608 18.3922C11.679 18.3922 13.7556 17.5644 15.2729 16.162C17.0048 14.5603 18 12.1998 18 9.40263C18 8.79722 17.9468 8.22282 17.8548 7.6634H9.19608V11.1194H14.1533C13.9311 12.2536 13.2794 13.2116 12.3138 13.863C11.4862 14.4147 10.4375 14.752 9.19608 14.752C6.79743 14.752 4.76627 13.1343 4.03825 10.9503C3.84667 10.3985 3.74638 9.80915 3.74638 9.19608C3.74638 8.583 3.85433 7.99364 4.03825 7.44188C4.76627 5.25781 6.79743 3.64011 9.19608 3.64011C10.5525 3.64011 11.763 4.10818 12.7209 5.02012L15.3418 2.3993C13.7554 0.912603 11.679 0 9.19608 0Z" fill="white"/>
</svg>
