<svg width="24" height="24" viewBox="0 0 24 24" fill="none" xmlns="http://www.w3.org/2000/svg">
<path d="M21.05 9.6313H7.75V6.89618C7.75 5.95163 8.3941 5.07435 9.32795 4.92087C9.60072 4.87458 9.88033 4.88818 10.1473 4.9607C10.4143 5.03323 10.6621 5.16294 10.8737 5.3408C11.0852 5.51866 11.2553 5.74039 11.3721 5.99052C11.4889 6.24066 11.5496 6.5132 11.55 6.78913H13.45C13.4495 6.25982 13.338 5.73647 13.1225 5.25274C12.907 4.76902 12.5924 4.33564 12.1988 3.98047C11.8053 3.62531 11.3416 3.35624 10.8375 3.19056C10.3334 3.02489 9.80008 2.96628 9.2719 3.01851C7.29685 3.20988 5.85 4.97866 5.85 6.95776V9.6313H3.95C3.69804 9.6313 3.45641 9.73112 3.27825 9.90879C3.10009 10.0865 3 10.3274 3 10.5787V12.4735C3 14.9424 4.5903 17.0427 6.8 17.8262V21H8.7V18.1578H16.3V21H18.2V17.8262C20.4097 17.0427 22 14.9424 22 12.4735V10.5787C22 10.3274 21.8999 10.0865 21.7218 9.90879C21.5436 9.73112 21.302 9.6313 21.05 9.6313V9.6313Z" fill="#086788"/>
</svg>
