<svg
   viewBox="0 0 24 24"
   xmlns="http://www.w3.org/2000/svg">
  <path
     d="m 8.625,4.6875 a 2.25,2.25 0 0 0 -2.25,2.25 v 1.125 h 11.25 v -1.125 a 2.25,2.25 0 0 0 -2.25,-2.25 z m -3.375,4.5 A 2.25,2.25 0 0 0 3,11.4375 v 3.375 a 2.25,2.25 0 0 0 2.25,2.25 h 1.125 v -2.25 a 2.25,2.25 0 0 1 2.25,-2.25 h 6.75 a 2.25,2.25 0 0 1 2.25,2.25 v 2.25 h 1.125 a 2.25,2.25 0 0 0 2.25,-2.25 v -3.375 a 2.25,2.25 0 0 0 -2.25,-2.25 z m 0.5625,2.25 a 0.5625,0.5625 0 0 1 0,1.125 0.5625,0.5625 0 0 1 0,-1.125 z m 2.8125,2.25 A 1.125,1.125 0 0 0 7.5,14.8125 v 3.375 a 1.125,1.125 0 0 0 1.125,1.125 h 6.75 a 1.125,1.125 0 0 0 1.125,-1.125 v -3.375 a 1.125,1.125 0 0 0 -1.125,-1.125 z"
   />
</svg>
