<svg viewBox="0 0 24 24" fill="none" xmlns="http://www.w3.org/2000/svg">
<path d="M19.8948 9.4395L18.6636 5.7459C18.485 5.20813 18.1415 4.74033 17.6818 4.40896C17.2221 4.07758 16.6697 3.8995 16.1031 3.9H7.8969C7.33025 3.8995 6.77785 4.07758 6.3182 4.40896C5.85854 4.74033 5.515 5.20813 5.3364 5.7459L4.1052 9.4395C3.7778 9.57649 3.4982 9.80721 3.30156 10.1027C3.10492 10.3981 3 10.7451 3 11.1V15.6C3 16.2642 3.3636 16.8384 3.9 17.1507V19.2C3.9 19.4387 3.99482 19.6676 4.1636 19.8364C4.33239 20.0052 4.56131 20.1 4.8 20.1H5.7C5.93869 20.1 6.16761 20.0052 6.3364 19.8364C6.50518 19.6676 6.6 19.4387 6.6 19.2V17.4H17.4V19.2C17.4 19.4387 17.4948 19.6676 17.6636 19.8364C17.8324 20.0052 18.0613 20.1 18.3 20.1H19.2C19.4387 20.1 19.6676 20.0052 19.8364 19.8364C20.0052 19.6676 20.1 19.4387 20.1 19.2V17.1507C20.3731 16.9941 20.6 16.7683 20.758 16.4961C20.916 16.2238 20.9995 15.9148 21 15.6V11.1C21 10.7451 20.8951 10.3981 20.6984 10.1027C20.5018 9.80721 20.2222 9.57649 19.8948 9.4395ZM7.8969 5.7H16.1022C16.4901 5.7 16.8339 5.9466 16.9563 6.3156L17.9517 9.3H6.0483L7.0428 6.3156C7.10251 6.13631 7.21715 5.98037 7.37044 5.86988C7.52374 5.75939 7.70793 5.69995 7.8969 5.7ZM6.15 14.7C5.97266 14.6999 5.79706 14.665 5.63324 14.597C5.46942 14.5291 5.32058 14.4296 5.19522 14.3041C5.06986 14.1787 4.97044 14.0298 4.90262 13.8659C4.83481 13.7021 4.79994 13.5264 4.8 13.3491C4.80006 13.1718 4.83505 12.9962 4.90297 12.8323C4.97089 12.6685 5.07041 12.5197 5.19586 12.3943C5.3213 12.269 5.4702 12.1695 5.63407 12.1017C5.79794 12.0339 5.97356 11.999 6.1509 11.9991C6.50906 11.9992 6.85251 12.1416 7.10568 12.395C7.35885 12.6483 7.50102 12.9918 7.5009 13.35C7.50078 13.7082 7.35839 14.0516 7.10504 14.3048C6.8517 14.558 6.50816 14.7001 6.15 14.7ZM17.85 14.7C17.6727 14.6999 17.4971 14.665 17.3332 14.597C17.1694 14.5291 17.0206 14.4296 16.8952 14.3041C16.7699 14.1787 16.6704 14.0298 16.6026 13.8659C16.5348 13.7021 16.4999 13.5264 16.5 13.3491C16.5001 13.1718 16.535 12.9962 16.603 12.8323C16.6709 12.6685 16.7704 12.5197 16.8959 12.3943C17.0213 12.269 17.1702 12.1695 17.3341 12.1017C17.4979 12.0339 17.6736 11.999 17.8509 11.9991C18.2091 11.9992 18.5525 12.1416 18.8057 12.395C19.0589 12.6483 19.201 12.9918 19.2009 13.35C19.2008 13.7082 19.0584 14.0516 18.805 14.3048C18.5517 14.558 18.2082 14.7001 17.85 14.7Z" fill="black"/>
</svg>
