<svg width="24" height="24" viewBox="0 0 24 24" fill="none" xmlns="http://www.w3.org/2000/svg">
<path d="M12.1961 3C8.60194 3 5.49755 5.06846 3.98786 8.07251C3.35946 9.31398 3 10.7094 3 12.1961C3 13.6828 3.35946 15.0782 3.98786 16.3196C5.49755 19.3237 8.60194 21.3922 12.1961 21.3922C14.679 21.3922 16.7556 20.5644 18.2729 19.162C20.0048 17.5603 21 15.1998 21 12.4026C21 11.7972 20.9468 11.2228 20.8548 10.6634H12.1961V14.1194H17.1533C16.9311 15.2536 16.2794 16.2116 15.3138 16.863C14.4862 17.4147 13.4375 17.752 12.1961 17.752C9.79743 17.752 7.76627 16.1343 7.03825 13.9503C6.84667 13.3985 6.74638 12.8091 6.74638 12.1961C6.74638 11.583 6.85433 10.9936 7.03825 10.4419C7.76627 8.25781 9.79743 6.64011 12.1961 6.64011C13.5525 6.64011 14.763 7.10818 15.7209 8.02012L18.3418 5.3993C16.7554 3.9126 14.679 3 12.1961 3Z" fill="white"/>
</svg>
