<svg width="25" height="24" viewBox="0 0 25 24" fill="none" xmlns="http://www.w3.org/2000/svg">
<path d="M12.8333 3.80078C15.5051 3.80078 15.8215 3.8125 16.8723 3.85937C17.8489 3.90234 18.3762 4.06641 18.7278 4.20313C19.1926 4.38281 19.5286 4.60156 19.8762 4.94922C20.2278 5.30078 20.4426 5.63281 20.6223 6.09766C20.759 6.44922 20.9231 6.98047 20.9661 7.95313C21.0129 9.00781 21.0247 9.32422 21.0247 11.9922C21.0247 14.6641 21.0129 14.9805 20.9661 16.0313C20.9231 17.0078 20.759 17.5352 20.6223 17.8867C20.4426 18.3516 20.2239 18.6875 19.8762 19.0352C19.5247 19.3867 19.1926 19.6016 18.7278 19.7813C18.3762 19.918 17.845 20.082 16.8723 20.125C15.8176 20.1719 15.5012 20.1836 12.8333 20.1836C10.1614 20.1836 9.84497 20.1719 8.79419 20.125C7.81763 20.082 7.29028 19.918 6.93872 19.7813C6.47388 19.6016 6.13794 19.3828 5.79028 19.0352C5.43872 18.6836 5.22388 18.3516 5.04419 17.8867C4.90747 17.5352 4.74341 17.0039 4.70044 16.0313C4.65356 14.9766 4.64185 14.6602 4.64185 11.9922C4.64185 9.32031 4.65356 9.00391 4.70044 7.95313C4.74341 6.97656 4.90747 6.44922 5.04419 6.09766C5.22388 5.63281 5.44263 5.29688 5.79028 4.94922C6.14185 4.59766 6.47388 4.38281 6.93872 4.20313C7.29028 4.06641 7.82153 3.90234 8.79419 3.85937C9.84497 3.8125 10.1614 3.80078 12.8333 3.80078ZM12.8333 2C10.1184 2 9.77856 2.01172 8.71216 2.05859C7.64966 2.10547 6.91919 2.27734 6.28638 2.52344C5.62622 2.78125 5.06763 3.12109 4.51294 3.67969C3.95435 4.23438 3.6145 4.79297 3.35669 5.44922C3.1106 6.08594 2.93872 6.8125 2.89185 7.875C2.84497 8.94531 2.83325 9.28516 2.83325 12C2.83325 14.7148 2.84497 15.0547 2.89185 16.1211C2.93872 17.1836 3.1106 17.9141 3.35669 18.5469C3.6145 19.207 3.95435 19.7656 4.51294 20.3203C5.06763 20.875 5.62622 21.2188 6.28247 21.4727C6.91919 21.7188 7.64575 21.8906 8.70825 21.9375C9.77466 21.9844 10.1145 21.9961 12.8293 21.9961C15.5442 21.9961 15.884 21.9844 16.9504 21.9375C18.0129 21.8906 18.7434 21.7188 19.3762 21.4727C20.0325 21.2188 20.5911 20.875 21.1458 20.3203C21.7004 19.7656 22.0442 19.207 22.2981 18.5508C22.5442 17.9141 22.7161 17.1875 22.7629 16.125C22.8098 15.0586 22.8215 14.7188 22.8215 12.0039C22.8215 9.28906 22.8098 8.94922 22.7629 7.88281C22.7161 6.82031 22.5442 6.08984 22.2981 5.45703C22.052 4.79297 21.7122 4.23438 21.1536 3.67969C20.5989 3.125 20.0403 2.78125 19.384 2.52734C18.7473 2.28125 18.0208 2.10938 16.9583 2.0625C15.8879 2.01172 15.5481 2 12.8333 2Z" fill="black"/>
<path d="M12.8333 6.86328C9.99731 6.86328 7.69653 9.16406 7.69653 12C7.69653 14.8359 9.99731 17.1367 12.8333 17.1367C15.6692 17.1367 17.97 14.8359 17.97 12C17.97 9.16406 15.6692 6.86328 12.8333 6.86328ZM12.8333 15.332C10.9934 15.332 9.50122 13.8398 9.50122 12C9.50122 10.1602 10.9934 8.66797 12.8333 8.66797C14.6731 8.66797 16.1653 10.1602 16.1653 12C16.1653 13.8398 14.6731 15.332 12.8333 15.332Z" fill="black"/>
<path d="M19.3723 6.66016C19.3723 7.32422 18.8333 7.85938 18.1731 7.85938C17.509 7.85938 16.9739 7.32032 16.9739 6.66016C16.9739 5.99609 17.5129 5.46094 18.1731 5.46094C18.8333 5.46094 19.3723 6 19.3723 6.66016Z" fill="black"/>
</svg>
