<svg width="24" height="24" viewBox="0 0 24 24" fill="none" xmlns="http://www.w3.org/2000/svg">
<path fill-rule="evenodd" clip-rule="evenodd" d="M3.21967 13.0605C2.92678 12.7677 2.92678 12.2928 3.21967 11.9999L5.93934 9.28022C6.23223 8.98732 6.70711 8.98732 7 9.28022C7.29289 9.57311 7.29289 10.048 7 10.3409L5.56066 11.7802H15.25C15.6642 11.7802 16 12.116 16 12.5302C16 12.9444 15.6642 13.2802 15.25 13.2802H5.56066L7 14.7196C7.29289 15.0125 7.29289 15.4874 7 15.7803C6.70711 16.0732 6.23223 16.0732 5.93934 15.7803L3.21967 13.0605Z" fill="black"/>
<path fill-rule="evenodd" clip-rule="evenodd" d="M20.7803 13.0605C21.0732 12.7677 21.0732 12.2928 20.7803 11.9999L18.0607 9.28022C17.7678 8.98732 17.2929 8.98732 17 9.28022C16.7071 9.57311 16.7071 10.048 17 10.3409L18.4393 11.7802H8.75C8.33579 11.7802 8 12.116 8 12.5302C8 12.9444 8.33579 13.2802 8.75 13.2802H18.4393L17 14.7196C16.7071 15.0125 16.7071 15.4874 17 15.7803C17.2929 16.0732 17.7678 16.0732 18.0607 15.7803L20.7803 13.0605Z" fill="black"/>
</svg>
