<svg xmlns="http://www.w3.org/2000/svg" fill="none" viewBox="0 0 30 40">
  <path d="M1 35.55V4.444C1 2.542 2.567 1 4.5 1h21C27.433 1 29 2.542 29 4.444V35.55c0 2.838-3.293 4.458-5.6 2.755l-6.3-4.65a3.546 3.546 0 0 0-4.2 0l-6.3 4.65C4.293 40.008 1 38.388 1 35.55Z"/>
  <path d="m6.6 38.305.594.805-.594-.805Zm6.3-4.65-.594-.804.594.805Zm4.2 0 .594-.804-.594.805Zm6.3 4.65-.594.805.594-.805ZM0 4.444V35.55h2V4.444H0ZM7.194 39.11l6.3-4.65-1.188-1.609-6.3 4.65 1.188 1.609Zm9.312-4.65 6.3 4.65 1.188-1.61-6.3-4.649-1.188 1.61ZM30 35.55V4.444h-2V35.55h2ZM25.5 0h-21v2h21V0ZM30 4.444C30 1.974 27.97 0 25.5 0v2C26.896 2 28 3.11 28 4.444h2ZM22.806 39.11C25.75 41.28 30 39.239 30 35.55h-2c0 1.987-2.334 3.184-4.006 1.95l-1.188 1.61Zm-9.312-4.65a2.546 2.546 0 0 1 3.012 0l1.188-1.609a4.546 4.546 0 0 0-5.388 0l1.188 1.61ZM0 35.55c0 3.689 4.25 5.731 7.194 3.56L6.006 37.5C4.334 38.734 2 37.537 2 35.55H0ZM2 4.444C2 3.109 3.104 2 4.5 2V0C2.03 0 0 1.974 0 4.444h2Z"/>
</svg>
