<svg width="18" height="20" viewBox="0 0 18 20" fill="none" xmlns="http://www.w3.org/2000/svg">
<path d="M4.2 18.6L4.65 19.2H4.65L4.2 18.6ZM7.8 15.9L7.35 15.3H7.35L7.8 15.9ZM10.2 15.9L10.65 15.3L10.2 15.9ZM13.8 18.6L13.35 19.2L13.8 18.6ZM1 5.25C0.585786 5.25 0.25 5.58579 0.25 6C0.25 6.41421 0.585786 6.75 1 6.75V5.25ZM17 6.75C17.4142 6.75 17.75 6.41421 17.75 6C17.75 5.58579 17.4142 5.25 17 5.25V6.75ZM0.25 3V17H1.75V3H0.25ZM4.65 19.2L8.25 16.5L7.35 15.3L3.75 18L4.65 19.2ZM9.75 16.5L13.35 19.2L14.25 18L10.65 15.3L9.75 16.5ZM17.75 17V3H16.25V17H17.75ZM15 0.25H3V1.75H15V0.25ZM17.75 3C17.75 1.48122 16.5188 0.25 15 0.25V1.75C15.6904 1.75 16.25 2.30964 16.25 3H17.75ZM13.35 19.2C15.1629 20.5597 17.75 19.2661 17.75 17H16.25C16.25 18.0301 15.074 18.618 14.25 18L13.35 19.2ZM8.25 16.5C8.69444 16.1667 9.30556 16.1667 9.75 16.5L10.65 15.3C9.67222 14.5667 8.32778 14.5667 7.35 15.3L8.25 16.5ZM0.25 17C0.25 19.2661 2.8371 20.5597 4.65 19.2L3.75 18C2.92595 18.618 1.75 18.0301 1.75 17H0.25ZM1.75 3C1.75 2.30964 2.30964 1.75 3 1.75V0.25C1.48122 0.25 0.25 1.48122 0.25 3H1.75ZM1 6.75H17V5.25H1V6.75Z" fill="#28303F"/>
</svg>
