<svg width="19" height="18" viewBox="0 0 19 18" fill="none" xmlns="http://www.w3.org/2000/svg">
<path d="M18.0004 6.6313H4.73696V3.89618C4.73696 2.95163 5.37929 2.07435 6.31058 1.92087C6.5826 1.87458 6.86144 1.88818 7.12767 1.9607C7.3939 2.03323 7.64111 2.16294 7.85207 2.3408C8.06303 2.51866 8.23266 2.74039 8.34915 2.99052C8.46563 3.24066 8.52616 3.5132 8.52652 3.78913H10.4213C10.4208 3.25982 10.3096 2.73647 10.0947 2.25274C9.87981 1.76902 9.56604 1.33564 9.17358 0.980475C8.78112 0.625313 8.31865 0.356239 7.81594 0.190563C7.31323 0.0248869 6.7814 -0.0337213 6.25468 0.0185089C4.28505 0.209882 2.84217 1.97866 2.84217 3.95776V6.6313H0.947392C0.696128 6.6313 0.455155 6.73112 0.277485 6.90879C0.0998141 7.08646 0 7.32743 0 7.57869V9.47348C0 11.9424 1.58593 14.0427 3.78957 14.8262V18H5.68435V15.1578H13.2635V18H15.1583V14.8262C17.3619 14.0427 18.9478 11.9424 18.9478 9.47348V7.57869C18.9478 7.32743 18.848 7.08646 18.6703 6.90879C18.4927 6.73112 18.2517 6.6313 18.0004 6.6313Z" fill="#086788"/>
</svg>
