<svg width="23" height="31" viewBox="0 0 23 31" fill="none" xmlns="http://www.w3.org/2000/svg">
<path d="M18.031 29.3303L18.3602 28.954L18.031 29.3303ZM13.5111 25.3754L13.1818 25.7517L13.5111 25.3754ZM9.97405 25.3754L10.3033 25.7517H10.3033L9.97405 25.3754ZM5.45414 29.3303L5.12489 28.954H5.12489L5.45414 29.3303ZM1.5 27.3091V3.68564H0.5V27.3091H1.5ZM3.68564 1.5H19.7995V0.5H3.68564V1.5ZM21.9851 3.68564V27.3091H22.9851V3.68564H21.9851ZM18.3602 28.954L13.8403 24.9991L13.1818 25.7517L17.7017 29.7066L18.3602 28.954ZM9.6448 24.9991L5.12489 28.954L5.78339 29.7066L10.3033 25.7517L9.6448 24.9991ZM13.8403 24.9991C12.6392 23.9481 10.8459 23.9481 9.6448 24.9991L10.3033 25.7517C11.1273 25.0306 12.3578 25.0306 13.1818 25.7517L13.8403 24.9991ZM21.9851 27.3091C21.9851 29.1869 19.7734 30.1905 18.3602 28.954L17.7017 29.7066C19.7615 31.5089 22.9851 30.0461 22.9851 27.3091H21.9851ZM19.7995 1.5C21.0066 1.5 21.9851 2.47854 21.9851 3.68564H22.9851C22.9851 1.92626 21.5588 0.5 19.7995 0.5V1.5ZM1.5 3.68564C1.5 2.47854 2.47854 1.5 3.68564 1.5V0.5C1.92626 0.5 0.5 1.92626 0.5 3.68564H1.5ZM0.5 27.3091C0.5 30.0461 3.72361 31.5089 5.78339 29.7066L5.12489 28.954C3.71169 30.1905 1.5 29.1869 1.5 27.3091H0.5Z" fill="#383B41"/>
</svg>
