<?xml version="1.0" encoding="UTF-8" standalone="no"?>
<!-- Created with Inkscape (http://www.inkscape.org/) -->

<svg
   width="100"
   height="100"
   viewBox="0 0 26.458333 26.458334"
   version="1.1"
   id="svg4651"
   inkscape:version="1.1.1 (3bf5ae0d25, 2021-09-20)"
   sodipodi:docname="m2icon.svg"
   xmlns:inkscape="http://www.inkscape.org/namespaces/inkscape"
   xmlns:sodipodi="http://sodipodi.sourceforge.net/DTD/sodipodi-0.dtd"
   xmlns="http://www.w3.org/2000/svg"
   xmlns:svg="http://www.w3.org/2000/svg">
  <sodipodi:namedview
     id="namedview4653"
     pagecolor="#505050"
     bordercolor="#ffffff"
     borderopacity="1"
     inkscape:pageshadow="0"
     inkscape:pageopacity="0"
     inkscape:pagecheckerboard="1"
     inkscape:document-units="px"
     showgrid="false"
     units="px"
     inkscape:snap-bbox="true"
     inkscape:bbox-nodes="true"
     inkscape:zoom="4.0920134"
     inkscape:cx="-14.784898"
     inkscape:cy="73.191353"
     inkscape:window-width="1920"
     inkscape:window-height="1001"
     inkscape:window-x="-9"
     inkscape:window-y="-9"
     inkscape:window-maximized="1"
     inkscape:current-layer="layer1">
    <sodipodi:guide
       position="0,26.458333"
       orientation="0,100"
       id="guide4727" />
    <sodipodi:guide
       position="26.458333,26.458333"
       orientation="100,0"
       id="guide4729" />
    <sodipodi:guide
       position="26.458333,0"
       orientation="0,-100"
       id="guide4731" />
    <sodipodi:guide
       position="0,0"
       orientation="-100,0"
       id="guide4733" />
  </sodipodi:namedview>
  <defs
     id="defs4648" />
  <g
     inkscape:label="Layer 1"
     inkscape:groupmode="layer"
     id="layer1">
    <path
       id="rect4870-4-5"
       style="fill:#161616;fill-opacity:1;stroke:none;stroke-width:2.40531;stroke-linecap:round;stroke-linejoin:miter;stroke-miterlimit:4;stroke-dasharray:none;stroke-opacity:1;paint-order:fill markers stroke"
       d="M 4.9609373,2.9999999e-7 C 2.2125779,2.9999999e-7 -3.1e-7,2.2126005 -3.1e-7,4.9609379 V 21.497396 c 0,2.74836 2.21257821,4.960937 4.96093761,4.960937 H 21.497396 c 2.74836,0 4.960937,-2.212577 4.960937,-4.960937 V 4.9609379 C 26.458333,2.2126005 24.245756,2.9999999e-7 21.497396,2.9999999e-7 Z M 4.2843977,3.307292 c 0.5496719,0 0.9921875,0.4425156 0.9921875,0.9921875 v 3.9687501 c 0,0.5496719 -0.4425156,0.9921875 -0.9921875,0.9921875 -0.5496719,0 -0.9921876,-0.4425156 -0.9921876,-0.9921875 V 4.2994795 c 0,-0.5496719 0.4425157,-0.9921875 0.9921876,-0.9921875 z m 3.9687501,0 c 0.5496718,0 0.9921874,0.4425156 0.9921874,0.9921875 v 3.9687501 c 0,0.5496719 -0.4425156,0.9921875 -0.9921874,0.9921875 -0.5496719,0 -0.9921875,-0.4425156 -0.9921875,-0.9921875 V 4.2994795 c 0,-0.5496719 0.4425156,-0.9921875 0.9921875,-0.9921875 z m 9.9520382,0 h 3.96875 c 0.103055,0 0.202097,0.015434 0.295407,0.044362 0.124398,0.038519 0.238389,0.1005637 0.336329,0.1813057 0.02447,0.020285 0.04813,0.041672 0.07062,0.064161 0.179344,0.1793434 0.28983,0.4275006 0.28983,0.7023585 v 3.9687501 c 0,0.5496719 -0.442516,0.9921875 -0.992188,0.9921875 -0.549672,0 -0.992188,-0.4425156 -0.992188,-0.9921875 V 6.6946863 l -5.277462,5.2770257 c 0.18135,0.38336 0.286367,0.808611 0.286367,1.257456 0,1.632169 -1.344391,2.976562 -2.976562,2.976562 -0.448844,0 -0.873654,-0.105019 -1.257014,-0.286368 l -5.2473267,5.247304 h 1.5434028 c 0.5496719,0 0.9921875,0.442516 0.9921875,0.992188 0,0.549673 -0.4425156,0.992188 -0.9921875,0.992188 H 4.284401 c -0.5496719,0 -0.9921875,-0.442515 -0.9921875,-0.992188 v -3.968749 c 0,-0.549673 0.4425156,-0.992188 0.9921875,-0.992188 0.5496719,0 0.9921875,0.442515 0.9921875,0.992188 v 1.602845 l 5.2662665,-5.266266 c -0.193498,-0.393612 -0.305329,-0.832908 -0.305329,-1.297516 0,-1.632171 1.344392,-2.976563 2.976563,-2.976563 0.464608,0 0.903905,0.11183 1.297516,0.305329 l 5.267127,-5.266267 h -1.573543 c -0.549672,0 -0.992188,-0.4425156 -0.992188,-0.9921875 0,-0.5496719 0.442516,-0.9921875 0.992188,-0.9921875 z m -4.991101,8.929688 c -0.559725,0 -0.992187,0.432461 -0.992187,0.992188 0,0.559725 0.432462,0.992187 0.992187,0.992187 0.559726,0 0.992188,-0.432462 0.992188,-0.992187 0,-0.559727 -0.432462,-0.992188 -0.992188,-0.992188 z" />
  </g>
</svg>
